<svg id="Layer_1" data-name="Layer 1" xmlns="http://www.w3.org/2000/svg" viewBox="0 0 791.16 244.48"><defs><style>.cls-1{fill:#fff;}</style></defs><title>Halo Typography</title><path class="cls-1" d="M69,247.85h97.56V159.37h34.13V385.54H166.51V279.93H69V385.54H34.82V159.37H69Z" transform="translate(-34.82 -145.16)"/><path class="cls-1" d="M387.7,330.61H290.88l-25.2,54.93H228.91L340.83,145.16l108,240.38H411.43Zm-13.91-32.08-33.55-76.9-35.15,76.9Z" transform="translate(-34.82 -145.16)"/><path class="cls-1" d="M511.19,159.37V353.46h66.5v32.08H477.06V159.37Z" transform="translate(-34.82 -145.16)"/><path class="cls-1" d="M589.56,271.43q0-47.74,35-82,34.86-34.28,83.79-34.28,48.33,0,82.91,34.57T826,272.75q0,48.78-34.86,82.76-35,34.14-84.52,34.13-43.8,0-78.66-30.32Q589.56,325.78,589.56,271.43Zm34.42.44q0,37.5,25.2,61.67T707,357.71q35.6,0,60.06-24.61,24.46-24.9,24.46-60.64,0-36.18-24.17-60.65T707.92,187.2q-35.31,0-59.62,24.61Q624,236.13,624,271.87Z" transform="translate(-34.82 -145.16)"/></svg>